<?xml version="1.0" encoding="utf-8"?>
<!-- Generator: Adobe Illustrator 24.2.3, SVG Export Plug-In . SVG Version: 6.00 Build 0)  -->
<svg version="1.1" id="Capa_1" xmlns="http://www.w3.org/2000/svg" xmlns:xlink="http://www.w3.org/1999/xlink" x="0px" y="0px"
	 viewBox="0 0 512 512" style="enable-background:new 0 0 512 512;" xml:space="preserve">
<style type="text/css">
	.st0{fill:#E63946;}
	.st1{fill:#D4353A;}
	.st2{fill:#C6C7C4;}
	.st3{fill:#4B5055;}
	.st4{fill:#697077;}
	.st5{fill:#373C41;}
	.st6{fill:#FCF6E5;}
	.st7{fill:#F7E4CB;}
	.st8{fill:#FFFFFF;}
</style>
<g>
	<g>
		<path class="st0" d="M256,325C114.6,325,12,167.3,33,130.2C76.9,52.5,160.3,0,256,0c95.6,0,178.9,52.4,222.9,130
			C500,167.2,397.4,325,256,325z"/>
		<path class="st1" d="M512,256c0,26.1-3.9,51.2-11.1,74.9c-5,16.5-11.7,32.2-19.8,47.1c-8.3,15.2-147.4,50.2-225.1,50.2
			S39.1,393.2,30.9,378c-3.3-6-6.3-12.2-9.1-18.5C7.8,327.8,0,292.8,0,256c0-46.2,12.3-89.6,33.7-127C77.8,206.1,160.8,258,256,258
			s178.2-51.9,222.3-129C499.8,166.4,512,209.8,512,256z"/>
		<path class="st2" d="M481.3,377.7c-7.2,13.2-15.4,25.7-24.7,37.4c-7,8.8-14.5,17.1-22.5,24.8c-1.7,1.6-291.6,51.9-335,18.2
			c-5.5-4.2-10.7-8.7-15.8-13.4c-10-9.2-19.3-19.1-27.7-29.7c-9.3-11.7-17.6-24.2-24.7-37.4H481.3z"/>
	</g>
	<g>
		<path class="st3" d="M434.8,281.5H266.5H98.8v176.6C142.2,491.9,196.8,512,256,512c69.6,0,132.7-27.8,178.8-72.8L434.8,281.5z"/>
		<path class="st4" d="M98.8,281.5v176.6c24.8,19.3,53.3,34.2,84.2,43.3V281.5h-42.2H98.8z"/>
		<path class="st5" d="M266.5,511.8c65.4-2.6,124.5-29.8,168.4-72.6V281.5H266.5L266.5,511.8z"/>
		<path class="st6" d="M392.2,365.3v-21H266.5H140.7v21h41.9v62.9h-41.9v21h125.7h125.7v-21h-41.9v-62.9H392.2z M329.3,428.2h-62.9
			h-62.9v-62.9h62.9h62.9V428.2z"/>
		<path class="st7" d="M392.2,428.2h-41.9v-62.9h41.9v-21H266.5v21h62.9v62.9h-62.9v21h125.7L392.2,428.2z"/>
		<path class="st7" d="M422.1,181.6c-1.1-6.1-7-16.2-17.3-19.8l-43.1,23.6l-54.3,57.9l6.4,15.5l118.3-20.5L422.1,181.6z"/>
		<path class="st3" d="M391.8,160.3l-65.1,11.3l-45.9,26.7l-15,16l-29.6,31.6l-4.6,27.3l34.2-5.9l48.1-8.3l91-97.1
			C400.8,160.3,396.4,159.5,391.8,160.3z"/>
		<path class="st5" d="M404.8,161.7c-4.1-1.4-8.4-2.2-13-1.4l-65.1,11.3l-45.9,26.7l-15,16v52.9l48.1-8.3L404.8,161.7z"/>
		<path class="st6" d="M265.8,182.1l-21.3,3.7l-47.9,28.7l-36.3,38.8l-11,34.1l82.3-14.3l34.2-36.5l60.9-65L265.8,182.1z"/>
		<path class="st7" d="M265.8,182.1v54.5l60.9-65L265.8,182.1z"/>
		<path class="st3" d="M162.2,200l-58.4,40l-18.9,42.6l2.7,15.5l61.7-10.7l95.1-101.6L162.2,200z"/>
		<path class="st6" d="M98.8,211c-6.9,1.2-12.9,5-16.9,10.8s-5.6,12.7-4.3,19.6l7.3,41.3l77.4-82.6L98.8,211z"/>
		<g>
			<path class="st5" d="M109.3,323.4c-17.3,0-31.4-14.1-31.4-31.4s14.1-31.4,31.4-31.4s31.4,14.1,31.4,31.4S126.6,323.4,109.3,323.4
				z"/>
		</g>
	</g>
	<g>
		<path class="st8" d="M134.2,143.5h-1.5c-6.8,0-12.2-5.5-12.2-12.2v-1.5h-8.7v1.5c0,6.8-5.5,12.2-12.2,12.2H98v8.7h1.5
			c6.8,0,12.2,5.5,12.2,12.2v1.5h8.7v-1.5c0-6.8,5.5-12.2,12.2-12.2h1.5V143.5z"/>
		<path class="st8" d="M228.2,68.8h-1.5c-6.8,0-12.2-5.5-12.2-12.2V55h-8.7v1.5c0,6.8-5.5,12.2-12.2,12.2H192v8.7h1.5
			c6.8,0,12.2,5.5,12.2,12.2v1.5h8.7v-1.5c0-6.8,5.5-12.2,12.2-12.2h1.5V68.8z"/>
		<path class="st8" d="M339.2,107.5h-1.5c-6.8,0-12.2-5.5-12.2-12.2v-1.5h-8.7v1.5c0,6.8-5.5,12.2-12.2,12.2H303v8.7h1.5
			c6.8,0,12.2,5.5,12.2,12.2v1.5h8.7v-1.5c0-6.8,5.5-12.2,12.2-12.2h1.5V107.5z"/>
	</g>
</g>
</svg>
