<svg height="512pt" viewBox="0 -16 512 512" width="512pt" xmlns="http://www.w3.org/2000/svg"><path d="m45 180h-30c-8.289062 0-15 6.710938-15 15s6.710938 15 15 15h15v105c0 8.289062 6.710938 15 15 15h15v135c0 5.449219 2.960938 10.472656 7.734375 13.125 4.6875 2.585938 10.511719 2.539062 15.21875-.410156l112.046875-70.027344 112.046875 70.027344c4.582031 2.871094 10.398437 3.070312 15.21875.410156 4.773437-2.652344 7.734375-7.675781 7.734375-13.125v-135h15c8.289062 0 15-6.710938 15-15v-105h15c8.289062 0 15-6.710938 15-15s-6.710938-15-15-15h-30c-8.289062 0-15 6.710938-15 15v45h-30v-90h15c8.289062 0 15-6.710938 15-15v-90c0-8.289062-6.710938-15-15-15h-15v-15c0-8.289062-6.710938-15-15-15s-15 6.710938-15 15v15h-150v-15c0-8.289062-6.710938-15-15-15s-15 6.710938-15 15v15h-15c-8.289062 0-15 6.710938-15 15v90c0 8.289062 6.710938 15 15 15h15v90h-30v-45c0-8.289062-6.710938-15-15-15zm82.300781 150h135.398438l-67.699219 42.308594zm172.699219 12.0625v95.867188l-76.695312-47.933594zm-180-192.0625h150v90h-150zm-30 192.0625 76.695312 47.933594-76.695312 47.933594zm0 0"/><path d="m497 330h-15v-15c0-24.8125-22.1875-45-47-45s-45 20.1875-45 45v28.183594l-4.203125 16.816406c6.441406 0 114.28125 0 111.203125 0 8.289062 0 15-6.710938 15-15s-6.710938-15-15-15zm0 0"/><path d="m508.820312 474.230469c2.84375-3.632813 3.855469-8.378907 2.726563-12.863281l-17.84375-71.367188h-115.40625l-17.84375 71.367188c-1.128906 4.480468-.117187 9.230468 2.726563 12.859374 2.839843 3.648438 7.207031 5.773438 11.820312 5.773438h122c4.613281 0 8.980469-2.125 11.820312-5.769531zm0 0"/></svg>