<?xml version="1.0" encoding="iso-8859-1"?>
<!-- Generator: Adobe Illustrator 16.0.0, SVG Export Plug-In . SVG Version: 6.00 Build 0)  -->
<!DOCTYPE svg PUBLIC "-//W3C//DTD SVG 1.1//EN" "http://www.w3.org/Graphics/SVG/1.1/DTD/svg11.dtd">
<svg version="1.1" id="Capa_1" xmlns="http://www.w3.org/2000/svg" xmlns:xlink="http://www.w3.org/1999/xlink" x="0px" y="0px"
	 width="97.38px" height="97.38px" viewBox="0 0 97.38 97.38" style="enable-background:new 0 0 97.38 97.38;" xml:space="preserve"
	>
<g>
	<g>
		<path d="M83.113,83.048c-1.139-21.996-9.393-32.996-17.345-37.799c-0.006-0.004-0.012-0.008-0.018-0.012
			c-4.355,5.689-10.429,9-17.063,9c-6.506,0-12.531-3.338-16.917-9.067c-8.003,4.749-16.364,15.733-17.504,37.875
			c-0.203,3.912,2.426,7.269,5.871,7.497c0.124,0.008,6.745,0.344,6.745,0.344c4.114,4.672,12.586,6.495,21.954,6.495
			c9.942,0,17.74-2.181,21.663-6.495c0,0,6.618-0.336,6.74-0.344C80.686,90.312,83.312,86.957,83.113,83.048z M31.073,53.48
			c5.061,4.469,11.242,6.949,17.615,6.949c6.449,0,12.663-2.447,17.718-6.865c0.897,0.887,1.818,1.947,2.726,3.19
			c-1.128,1.505-6.813,8.042-20.444,8.117c-13.668-0.077-19.287-6.556-20.437-8.11C29.188,55.477,30.142,54.385,31.073,53.48z
			 M76.656,84.369c-0.947,0.05-4.561,0.232-5.935,0.303v-6.234c0-0.856-0.691-1.549-1.548-1.549s-1.549,0.692-1.549,1.549v6.403
			l-1.709,1.88c-2.544,2.797-8.928,4.467-17.079,4.467c-8.413,0-14.882-1.643-17.305-4.395l-1.725-1.96l-0.015-0.001v-6.395
			c0-0.856-0.692-1.549-1.549-1.549c-0.855,0-1.549,0.692-1.549,1.549v6.236c-1.361-0.068-5.083-0.258-5.971-0.305
			c-0.109-0.133-0.297-0.469-0.269-1.006c0.574-11.166,3.072-18.737,6.031-23.873c2.382,2.711,8.901,8.339,21.966,8.476v0.009
			c0.082,0,0.396,0,0.478,0v-0.009c13.066-0.137,19.585-5.767,21.967-8.478c2.954,5.136,5.453,12.709,6.03,23.875
			C76.952,83.9,76.764,84.236,76.656,84.369z"/>
		<path d="M30.394,36.037c3.451,8.928,9.945,14.795,18.296,14.795c7.977,0,14.889-5.646,18.3-14.795
			c3.582-0.332,5.46-3.791,6.159-7.87c0.832-4.875-0.917-7.252-4-7.784C68.098,8.935,64.808,0,48.69,0
			C32.479,0,29.278,8.936,28.229,20.383c-3.082,0.532-4.833,2.91-3.999,7.784C24.936,32.293,26.879,35.73,30.394,36.037z
			 M52.467,17.192c1.015,2.03,3.912,5.999,11.459,7.783c-0.712,11.751-6.899,20.057-15.237,20.057
			c-7.851,0-13.348-7.23-14.901-17.193C44.523,27.101,51.401,18.601,52.467,17.192z"/>
	</g>
</g>
<g>
</g>
<g>
</g>
<g>
</g>
<g>
</g>
<g>
</g>
<g>
</g>
<g>
</g>
<g>
</g>
<g>
</g>
<g>
</g>
<g>
</g>
<g>
</g>
<g>
</g>
<g>
</g>
<g>
</g>
</svg>
