<svg height="512pt" viewBox="0 -49 512.0005 512" width="512pt" xmlns="http://www.w3.org/2000/svg"><path d="m464.179688 0h-148.542969c-4.171875 0-7.554688 3.382812-7.554688 7.558594 0 4.171875 3.382813 7.554687 7.554688 7.554687h148.542969c18.035156 0 32.710937 14.671875 32.710937 32.703125v136.738282c0 18.03125-14.675781 32.703124-32.710937 32.703124h-258.113282c2.066406-7.371093 2.910156-15.511718 1.816406-24.441406h19.144532c4.171875 0 7.554687-3.382812 7.554687-7.554687s-3.382812-7.558594-7.554687-7.558594h-23.027344c-4.152344-9.992187-11.074219-17.652344-19.675781-21.363281-7.625-3.292969-19.96875-5.074219-35.484375 5.167968l-17.503906 11.582032c-6.832032 4.511718-13.207032 6.171875-16.636719 4.324218-3.335938-1.792968-5.25-7.742187-5.25-16.320312v-113.277344c0-18.03125 14.671875-32.703125 32.710937-32.703125h138.851563c4.171875 0 7.554687-3.382812 7.554687-7.554687 0-4.175782-3.382812-7.558594-7.554687-7.558594h-138.851563c-26.371094 0-47.824218 21.453125-47.824218 47.816406v11.582032c-.722657-.054688-1.4375-.109376-2.148438-.167969-19.117188-1.5-34.214844-2.683594-48.304688 26.472656l-29.925781 62.023437c-14.382812 29.84375-19.125 50.40625-7.167969 86.546876l9.632813 29.085937 3.003906 9.121094c1.304688 3.964843 5.574219 6.117187 9.539063 4.8125 3.964844-1.304688 6.121094-5.574219 4.816406-9.539063l-12.644531-38.230468c-10.453125-31.597657-6.664063-48.058594 6.433593-75.234376l29.921876-62.015624c9.59375-19.855469 15.140624-19.421876 33.511718-17.976563 1.066406.082031 2.179688.171875 3.332032.257813v86.539062c0 18.617188 7.183593 26.386719 13.203124 29.628906 8.714844 4.6875 20.125 2.902344 32.132813-5.023437l17.503906-11.585938c5.449219-3.597656 13.539063-7.191406 21.160157-3.902343 7.019531 3.035156 12.3125 11.175781 14.15625 21.785156 1.921874 11.023437.195312 20.558594-3.796876 29.042968-.1875.320313-.347656.652344-.484374 1-5.753907 11.597657-15.734376 21.230469-26.378907 30.039063-7.351562 6.066406-12.210937 10.074219-13.859375 16.515625-1.71875 6.714844.832032 13.496094 4.921875 23.082031 5.40625 12.636719 9.960938 27.332031 13.324219 42.933594h-110.300781l-11.996094-36.214844c-1.3125-3.960937-5.597656-6.109375-9.550781-4.792969-3.960938 1.3125-6.109375 5.585938-4.796875 9.546876l11.007812 33.230468c-4.203125 2.371094-7.054687 6.878906-7.054687 12.050782v51.734374c0 7.621094 6.183594 13.820313 13.789062 13.820313h139.871094c7.617188 0 13.816406-6.199219 13.816406-13.820313v-47.542968c0-9.929688-8.078125-18.011719-18.011718-18.011719h-1.335938c-3.621094-17.714844-8.71875-34.503906-14.863281-48.871094-1.542969-3.617187-4.757813-11.144531-4.179688-13.398437.425781-1.667969 4.324219-4.882813 8.847657-8.613282 7.191406-5.953124 19.820312-16.40625 28.277343-31.359374h264.441407c26.367187 0 47.820312-21.449219 47.820312-47.816407v-136.734375c0-26.363281-21.453125-47.816406-47.820312-47.816406zm-278.285157 352.625v46.246094h-137.253906v-49.144532h134.351563c1.570312 0 2.902343 1.328126 2.902343 2.898438zm0 0"/><path d="m150.066406 137.625c4.257813 0 6.722656-2.339844 7.390625-7.023438l5.203125-36.21875 10.949219 37.3125c1.277344 3.957032 3.800781 5.929688 7.574219 5.929688 2.25 0 3.90625-.425781 4.972656-1.277344 1.0625-.847656 1.929688-2.402344 2.597656-4.652344l10.953125-37.3125 5.289063 36.21875c.730468 4.683594 3.226562 7.023438 7.484375 7.023438 2.128906 0 3.890625-.714844 5.292969-2.140625 1.398437-1.429687 2.097656-3.269531 2.097656-5.519531l-.183594-1.460938-8.484375-50.359375c-.425781-2.25-1.566406-4.121093-3.421875-5.613281-1.855469-1.488281-3.96875-2.234375-6.339844-2.234375-5.050781 0-8.304687 2.464844-9.765625 7.390625l-10.492187 34.757812-10.308594-34.757812c-1.585938-4.925781-4.835938-7.390625-9.765625-7.390625-2.433594 0-4.59375.761719-6.476563 2.28125-1.886718 1.519531-3.011718 3.375-3.378906 5.566406l-8.484375 50.359375c-.121093.304688-.183593.789063-.183593 1.460938 0 2.1875.699218 4.011718 2.101562 5.472656 1.394531 1.457031 3.191406 2.1875 5.378906 2.1875zm0 0"/><path d="m244.117188 79.375c-6.023438 6.355469-9.035157 14.492188-9.035157 24.40625 0 10.035156 3.027344 18.261719 9.078125 24.675781 6.054688 6.417969 13.734375 9.625 23.039063 9.625 9.367187 0 17.0625-3.238281 23.085937-9.714843 6.019532-6.476563 9.03125-14.613282 9.03125-24.40625 0-9.910157-3.011718-18.078126-9.03125-24.496094-6.023437-6.414063-13.6875-9.625-22.992187-9.625-9.429688 0-17.152344 3.179687-23.175781 9.535156zm35.21875 9.53125c3.042968 3.832031 4.5625 8.882812 4.5625 15.144531 0 6.203125-1.535157 11.238281-4.609376 15.101563-3.070312 3.859375-7.101562 5.789062-12.085937 5.789062-5.050781 0-9.097656-1.914062-12.136719-5.746094-3.042968-3.832031-4.5625-8.941406-4.5625-15.328124 0-6.203126 1.5625-11.203126 4.699219-15.007813 3.128906-3.800781 7.128906-5.699219 11.996094-5.699219 5.050781 0 9.09375 1.914063 12.136719 5.746094zm0 0"/><path d="m360.941406 70.386719c-3.34375 0-5.625 1.613281-6.84375 4.835937l-13.777344 37.3125-13.777343-37.3125c-1.277344-3.222656-3.558594-4.835937-6.84375-4.835937-2.066407 0-3.847657.714843-5.335938 2.144531-1.492187 1.429688-2.238281 3.117188-2.238281 5.0625 0 .671875.0625 1.277344.183594 1.824219s.273437 1.097656.457031 1.644531l20.257813 50.816406c1.03125 2.371094 2.035156 3.953125 3.007812 4.746094.972656.785156 2.496094 1.183594 4.5625 1.183594 3.101562 0 5.445312-1.976563 7.027344-5.929688l20.253906-50.816406c.425781-1.09375.640625-2.25.640625-3.46875 0-2.003906-.730469-3.707031-2.191406-5.109375-1.457031-1.398437-3.253907-2.097656-5.382813-2.097656zm0 0"/><path d="m391.097656 70.296875c-2.007812 0-3.757812.777344-5.246094 2.324219-1.492187 1.554687-2.238281 3.300781-2.238281 5.246094v52.367187c0 2.070313.714844 3.820313 2.144531 5.246094 1.429688 1.429687 3.179688 2.144531 5.246094 2.144531 2.070313 0 3.816406-.71875 5.246094-2.144531s2.144531-3.148438 2.144531-5.152344v-52.460937c0-2.066407-.714843-3.847657-2.144531-5.335938s-3.144531-2.234375-5.152344-2.234375zm0 0"/><path d="m425.800781 71.027344c-2.066406 0-3.832031.761718-5.289062 2.277344-1.460938 1.523437-2.191407 3.285156-2.191407 5.292968v50.726563c0 2.128906.730469 3.910156 2.191407 5.335937 1.457031 1.429688 3.253906 2.144532 5.382812 2.144532h24.089844c1.945313 0 3.570313-.636719 4.878906-1.917969 1.308594-1.277344 1.964844-2.828125 1.964844-4.652344 0-.972656-.183594-1.855469-.550781-2.644531-.363282-.789063-.851563-1.488282-1.457032-2.097656-1.402343-1.339844-3.011718-2.007813-4.835937-2.007813h-16.789063v-13.046875h14.6875c2.007813 0 3.664063-.652344 4.976563-1.960938 1.304687-1.308593 1.960937-2.875 1.960937-4.699218 0-1.765625-.671874-3.316406-2.007812-4.652344-1.339844-1.339844-2.980469-2.007812-4.929688-2.007812h-14.78125v-12.589844h16.425782c1.761718 0 3.3125-.667969 4.652344-2.003906 1.277343-1.460938 1.914062-3.074219 1.914062-4.839844 0-1.824219-.636719-3.386719-1.914062-4.695313-1.277344-1.308593-2.828126-1.960937-4.652344-1.960937zm0 0"/><path d="m461.203125 48.941406h.625c4.171875 0 7.554687-3.382812 7.554687-7.554687 0-4.175781-3.382812-7.558594-7.554687-7.558594h-.625c-4.175781 0-7.558594 3.382813-7.558594 7.558594 0 4.171875 3.382813 7.554687 7.558594 7.554687zm0 0"/><path d="m147.816406 41.386719c0-4.175781-3.382812-7.558594-7.554687-7.558594h-.625c-4.171875 0-7.554688 3.382813-7.554688 7.558594 0 4.171875 3.382813 7.554687 7.554688 7.554687h.625c4.171875 0 7.554687-3.382812 7.554687-7.554687zm0 0"/><path d="m266.585938 177.703125c-4.171876 0-7.554688 3.382813-7.554688 7.558594 0 4.171875 3.382812 7.554687 7.554688 7.554687h28.367187c4.171875 0 7.554687-3.382812 7.554687-7.554687 0-4.175781-3.382812-7.558594-7.554687-7.558594zm0 0"/><path d="m334.480469 177.703125c-4.171875 0-7.554688 3.382813-7.554688 7.558594 0 4.171875 3.382813 7.554687 7.554688 7.554687h28.363281c4.175781 0 7.558594-3.382812 7.558594-7.554687 0-4.175781-3.382813-7.558594-7.558594-7.558594zm0 0"/><path d="m394.820312 185.261719c0 4.171875 3.382813 7.554687 7.554688 7.554687h28.367188c4.171874 0 7.554687-3.382812 7.554687-7.554687 0-4.175781-3.382813-7.558594-7.554687-7.558594h-28.367188c-4.171875 0-7.554688 3.386719-7.554688 7.558594zm0 0"/></svg>